<svg width="341" height="115" viewBox="0 0 341 115" fill="none" xmlns="http://www.w3.org/2000/svg">
<rect x="2.11801" y="2.11801" width="336.764" height="110.584" rx="12.7081" stroke="#00D991" stroke-width="4.23602"/>
<path d="M57.1219 32.1481V42.6275H49.036V84.5125H35.4193V42.6275H27.3658V32.1481H57.1219ZM58.2397 32.1481H67.8781C74.3037 32.1481 78.6486 32.3961 80.9126 32.892C83.1982 33.388 85.0526 34.6602 86.4757 36.7086C87.9204 38.7355 88.6427 41.9806 88.6427 46.444C88.6427 50.5193 88.136 53.2578 87.1226 54.6593C86.1092 56.0609 84.1146 56.9018 81.139 57.1821C83.8343 57.8506 85.6456 58.7454 86.5728 59.8666C87.4999 60.9879 88.0713 62.0229 88.287 62.9716C88.5242 63.8988 88.6427 66.4755 88.6427 70.7018V84.5125H75.9964V67.1116C75.9964 64.3085 75.77 62.5727 75.3172 61.9043C74.8859 61.2359 73.7323 60.9016 71.8564 60.9016V84.5125H58.2397V32.1481ZM71.8564 41.1073V52.751C73.3873 52.751 74.4547 52.5462 75.0584 52.1365C75.6837 51.7053 75.9964 50.3361 75.9964 48.0289V45.1503C75.9964 43.49 75.6945 42.4011 75.0908 41.8836C74.5086 41.3661 73.4304 41.1073 71.8564 41.1073ZM115.474 32.1481L123.269 84.5125H109.328L108.649 75.1005H103.765L102.957 84.5125H88.8549L95.7765 32.1481H115.474ZM108.261 65.8179C107.571 59.8882 106.881 52.5678 106.191 43.8565C104.811 53.8615 103.949 61.182 103.604 65.8179H108.261ZM123.61 32.1481H133.798C140.375 32.1481 144.817 32.45 147.124 33.0538C149.453 33.6575 151.221 34.6494 152.428 36.0294C153.636 37.4094 154.39 38.9511 154.692 40.6545C154.994 42.3364 155.145 45.657 155.145 50.6164V68.9552C155.145 73.6558 154.919 76.8039 154.466 78.3996C154.035 79.9736 153.269 81.2135 152.17 82.1191C151.07 83.0031 149.711 83.6285 148.094 83.995C146.477 84.34 144.041 84.5125 140.785 84.5125H123.61V32.1481ZM137.227 41.1073V75.5533C139.189 75.5533 140.396 75.1652 140.849 74.3889C141.302 73.5911 141.528 71.4457 141.528 67.9526V47.6084C141.528 45.2365 141.453 43.7164 141.302 43.048C141.151 42.3795 140.806 41.8944 140.267 41.5925C139.728 41.269 138.715 41.1073 137.227 41.1073ZM158.236 32.1481H180.941V42.6275H171.853V52.557H180.359V62.5188H171.853V74.0332H181.847V84.5125H158.236V32.1481ZM223.93 32.1481V84.5125H211.995L204.912 60.7076V84.5125H193.527V32.1481H204.912L212.545 55.7267V32.1481H223.93ZM258.556 62.8099C258.556 68.0712 258.426 71.8015 258.167 74.0008C257.93 76.1786 257.154 78.1732 255.839 79.9844C254.545 81.7956 252.788 83.1864 250.567 84.1567C248.346 85.127 245.758 85.6122 242.804 85.6122C240.001 85.6122 237.478 85.1594 235.236 84.2538C233.015 83.3266 231.225 81.9466 229.867 80.1138C228.508 78.281 227.7 76.2864 227.441 74.1302C227.182 71.974 227.053 68.2005 227.053 62.8099V53.8507C227.053 48.5895 227.171 44.87 227.409 42.6922C227.667 40.4928 228.444 38.4875 229.737 36.6763C231.053 34.865 232.821 33.4742 235.042 32.5039C237.263 31.5336 239.85 31.0485 242.804 31.0485C245.607 31.0485 248.119 31.512 250.34 32.4392C252.583 33.3449 254.383 34.7141 255.742 36.5469C257.1 38.3797 257.909 40.3742 258.167 42.5305C258.426 44.6867 258.556 48.4601 258.556 53.8507V62.8099ZM244.939 45.6031C244.939 43.1665 244.799 41.614 244.518 40.9456C244.26 40.2556 243.71 39.9106 242.869 39.9106C242.157 39.9106 241.608 40.1909 241.219 40.7516C240.853 41.2906 240.67 42.9078 240.67 45.6031V70.0549C240.67 73.0952 240.788 74.9711 241.025 75.6827C241.284 76.3943 241.866 76.75 242.772 76.75C243.699 76.75 244.292 76.3403 244.551 75.521C244.81 74.7016 244.939 72.7502 244.939 69.6668V45.6031ZM312.911 32.1481L306.863 84.5125H289.85C288.298 76.4697 286.928 67.3273 285.742 57.0851C285.203 61.4623 283.942 70.6047 281.958 84.5125H265.042L258.962 32.1481H272.19L273.581 50.4223L275.004 68.0496C275.5 58.9287 276.751 46.9615 278.756 32.1481H292.923C293.117 33.6791 293.613 39.4362 294.41 49.4196L295.898 69.311C296.653 56.6538 297.914 44.2662 299.682 32.1481H312.911Z" fill="white"/>
</svg>
