<svg width="200" height="67" viewBox="0 0 200 67" fill="none" xmlns="http://www.w3.org/2000/svg">
<mask id="path-1-outside-1_55_10260" maskUnits="userSpaceOnUse" x="-1" y="0" width="202" height="67" fill="black">
<rect fill="white" x="-1" width="202" height="67"/>
<path d="M101.434 1C98.6963 1 95.9425 1.77259 93.6751 2.6618C93.3186 1.86271 92.5964 1.36046 91.6555 1.29287L91.3891 1.27432L91.144 1.34455C87.713 2.34376 84.624 4.06785 81.6317 5.73495L80.6894 6.32732C79.4636 7.20195 77.7899 8.39994 77.4692 10.189C76.8424 13.6742 77.6441 16.7368 79.7287 18.8054L80.0732 19.0559C81.2845 19.6893 82.717 19.8921 84.2039 19.1288C88.7122 16.1073 92.4639 13.82 95.8458 12.0111C96.2725 11.8494 96.678 11.6374 97.0835 11.4214C97.1471 11.3896 97.2041 11.3551 97.2677 11.322L95.1938 16.7368C91.625 23.4648 87.7051 31.5963 84.2529 38.7683C81.8675 43.7219 79.8121 47.9997 78.2749 50.9668C77.8787 51.746 76.7297 56.7725 80.765 61.848C81.4528 62.716 82.4679 63.2302 83.4816 63.2302C84.3271 63.2302 85.9107 62.8631 86.9789 60.3996C88.422 57.0627 90.2004 53.7577 91.9205 50.5586C93.1198 48.3336 94.3139 46.1059 95.3621 43.9578C97.599 40.2207 99.6968 36.7937 101.893 33.5814C98.0509 40.8727 94.0594 48.7232 93.2086 52.0627L93.1675 52.3702C93.0761 55.3294 93.2934 59.6111 96.3639 62.7306C96.7323 63.0248 97.7077 63.7126 98.8487 63.7126C99.4291 63.7126 99.9698 63.5337 100.412 63.1918C102.139 61.8507 104.413 57.5173 107.204 51.9925C107.967 50.4765 108.631 49.1698 109.049 48.4356L109.882 47.1131C112.62 42.7466 115.418 38.2899 118.621 34.0678C116.791 37.5107 114.954 41.0781 113.858 43.5112C113.585 44.1115 113.293 44.7158 113.007 45.3174C111.071 49.3858 109.066 53.592 110.031 58.6053C110.375 61.261 112.706 62.7478 114.615 63.7126C115.577 64.0465 116.567 64.2148 117.562 64.2148C120.529 64.2148 123.113 62.7293 125.396 61.4187C125.688 61.2517 125.976 61.0847 126.262 60.9217C127.501 62.6114 129.188 63.6834 131.072 63.9326C135.814 64.3778 140.439 62.5716 144.335 58.914C147.621 62.0309 151.637 63.6092 156.302 63.6092C161.51 63.6053 166.453 61.6479 169.925 59.8138C173.304 62.7889 177.465 64.3513 182.05 64.3513C187.099 64.3513 191.857 62.4311 194.454 60.4168C194.706 60.1716 200.577 54.3726 199.954 48.604C199.768 47.0164 197.767 45.829 196.256 46.4969C194.785 47.1462 193.659 48.6994 192.48 50.3466C191.671 51.4717 190.836 52.6193 189.962 53.3999C190.889 51.9024 191.724 50.1915 192.559 48.1415C194.295 43.1216 193.169 37.4153 191.95 33.6106C191.618 32.2205 192.215 30.8714 192.93 29.309C193.235 28.6384 193.54 27.9692 193.765 27.2973L193.858 26.7381L193.765 26.3498C193.633 25.6647 193.381 24.5171 192.228 23.8651C189.856 22.5306 186.688 22.5213 184.939 24.0254C181.308 27.1198 177.611 33.1879 174.033 39.0559C171.939 42.4987 169.699 46.1749 167.579 48.9869C169.355 44.8112 168.48 40.1995 167.712 36.0901C167.5 34.9901 167.287 33.9061 167.102 32.6843C166.81 31.5976 167.155 30.552 167.539 29.3421C167.924 28.1759 168.348 26.8507 168.202 25.3506L168.162 24.8908L167.844 24.5436C166.837 23.4026 165.313 22.7704 163.537 22.7704C163.087 22.7704 162.636 22.8102 161.987 22.9308C157.905 24.1725 155.904 27.4285 154.141 30.3029C153.426 31.4757 152.737 32.5836 151.875 33.6464L151.213 34.5992C146.853 40.8926 142.334 47.3927 136.119 52.7876C136.066 52.1595 136.185 51.3431 136.477 50.7084C139.498 44.0519 142.665 39.9729 144.971 36.9938C146.376 35.2022 147.476 33.7869 148.072 32.3967C148.178 32.1675 148.615 30.7866 148.337 29.7662C148.191 29.2639 147.913 28.8173 147.529 28.4436C148.324 28.3548 149 28.1282 149.57 27.7585C152.034 26.1444 152.896 23.706 151.889 21.0026C151.147 19.2388 149.278 18.1322 146.893 18.0501L146.628 18.0421C144.348 18.0421 142.387 19.1566 141.287 21.2253C140.664 23.0289 140.744 24.6178 141.459 25.7309C141.791 26.3313 142.241 26.8189 142.731 27.1993C141.579 27.3464 140.611 27.7956 139.988 28.4542C133.853 33.4238 129.128 39.9027 125.928 47.7134C125.677 48.3257 125.468 48.9512 125.255 49.578C124.921 50.5865 124.596 51.5499 124.095 52.3914C123.757 52.5385 123.45 52.6577 123.132 52.7346C124.099 47.8009 126.441 43.2528 128.804 38.9419C130.508 35.3638 134.661 28.9207 138.319 23.2343C143.328 15.4646 146.164 10.9828 146.495 9.22156L146.522 9.03471L146.508 8.8452C146.336 6.54333 144.852 4.86827 143.328 3.31911C141.817 1.87994 139.339 1.41081 137.431 2.21654L137.205 2.33315C133.561 4.67611 130.272 7.53855 127.139 10.5203C127.367 10.1426 127.588 9.75959 127.816 9.37926C129.208 7.27484 127.559 5.48846 126.768 4.63238L126.401 4.22024C124.465 2.04028 121.021 1.24516 118.085 2.25894L117.836 2.37026C114.493 4.28518 111.776 6.87198 109.252 9.54491C109.576 7.81685 109.582 6.01589 108.842 4.19241L108.731 3.91545L107.47 2.66976L107.186 2.45242C105.546 1.489 103.61 1 101.434 1ZM32.3023 1.43864C30.7306 1.43864 29.2225 1.6626 27.6773 2.15293C18.3558 6.23455 11.1998 13.6623 6.39854 24.2414C4.6877 28.0037 -3.57627 47.3185 1.78418 57.8459C3.53743 61.2755 6.51251 63.437 10.6312 64.2798C12.2029 64.5978 13.7362 64.7622 15.1992 64.7622C25.7134 64.7622 31.4992 56.7274 35.3158 48.9008C34.8838 52.3477 34.9726 55.5878 35.8896 58.2965C36.9166 61.3272 38.8766 63.4847 41.7139 64.7131C42.4958 65.0524 43.3757 65.2194 44.3179 65.2194C48.7189 65.2194 53.8899 61.3763 56.0393 59.6058C58.9641 62.1648 61.6754 63.4104 64.2993 63.4104C68.7335 63.4104 71.531 59.8099 73.3823 57.4285L73.8792 56.7924C78.3438 51.1682 75.6232 48.6185 75.2985 48.3469L75.0414 48.1295L74.7101 48.046C74.4742 47.9891 74.2238 47.9612 73.976 47.9612C71.9908 47.9612 70.4589 49.7383 68.8395 51.6214C67.5156 53.16 65.8803 55.0908 64.6956 54.737C64.3775 54.6442 64.0767 54.3792 63.8978 54.0638C72.2757 48.7325 77.1405 43.0845 78.7838 36.6811C79.1085 34.4813 79.7883 29.908 75.8445 27.5544C74.6704 26.9448 73.3915 26.6334 72.0345 26.6334C69.1893 26.6334 66.5164 27.948 63.976 29.4163C62.8177 30.1916 61.7377 31.0225 60.7292 31.9037C67.8867 18.4543 68.5758 7.14497 67.5288 3.65173L67.4122 3.28465L67.1406 3.02226C66.2103 2.13305 64.8784 1.66128 63.2842 1.66128C61.8583 1.66128 60.2826 2.06016 59.0807 2.72807L58.8633 2.87251C52.8509 7.80757 49.1509 14.4296 46.1811 19.7477C45.8406 20.3665 45.3025 21.3485 44.6519 22.6101C44.7804 21.9886 44.8983 21.3631 45.0057 20.7283C45.0627 20.1571 45.1303 19.5793 45.1978 18.9989C45.4814 16.5605 45.7796 14.0387 45.0468 11.6202C44.7393 10.4818 43.9336 9.55949 42.6482 8.85846C42.8655 8.57354 43.0656 8.25284 43.2352 7.88046C43.7322 6.47442 43.2432 5.04717 41.8901 3.96978L41.6516 3.81871C38.658 2.28412 35.341 1.43864 32.3023 1.43864ZM33.063 15.5017C32.8178 19.8099 31.4886 23.7643 30.0945 27.9361C29.4809 29.7662 28.8435 31.6573 28.3452 33.4688C25.8936 40.393 23.324 47.0998 19.0198 52.8791C18.1239 53.7683 16.5827 54.8231 14.9633 54.4627C12.676 53.2952 12.7794 50.7919 13.2008 47.1303C13.2856 46.3922 13.3691 45.6766 13.3956 45.1187C14.2517 38.8306 16.6039 32.9096 18.8899 27.1873L19.3458 25.992C19.6042 25.5481 19.8308 25.0869 20.0521 24.6324C20.3012 24.1261 20.5438 23.6411 20.8181 23.1932C21.4369 23.38 22.1062 23.5298 22.8324 23.5298C23.332 23.5298 23.813 23.4569 24.2716 23.3071L24.5326 23.1866C26.5377 22.0416 27.9357 20.4778 29.2901 18.9724C30.4695 17.6578 31.5986 16.3989 33.063 15.5017ZM68.1345 38.3694C67.2399 40.1107 65.8949 41.8096 64.139 43.4158C64.0078 43.5191 63.8819 43.6199 63.7507 43.7299C64.5882 42.0005 65.9253 40.3016 67.7263 38.6716L68.1345 38.3694ZM52.6203 44.1725C51.8278 46.7712 51.4568 49.5011 51.5442 52.3066C51.482 52.3596 51.413 52.4166 51.3547 52.4722C50.504 53.2395 49.4451 54.1937 48.6632 54.1937C48.4923 54.1937 48.3227 54.1486 48.1371 54.0466C47.0518 53.4502 47.0889 51.2265 47.2241 50.3082C49.192 48.2634 50.9903 46.2146 52.6203 44.1725ZM181.958 45.2101C181.825 46.7752 181.268 48.6729 179.85 50.6633C179.519 50.5454 179.135 50.4248 178.711 50.3161C179.956 48.653 181.017 46.9329 181.958 45.2101ZM156.302 45.6289C155.877 46.9872 155.241 48.5125 154.42 50.1279C154.022 49.9384 153.611 49.7715 153.201 49.6363C154.261 48.3389 155.308 47.0058 156.302 45.6289Z"/>
</mask>
<path d="M101.434 1C98.6963 1 95.9425 1.77259 93.6751 2.6618C93.3186 1.86271 92.5964 1.36046 91.6555 1.29287L91.3891 1.27432L91.144 1.34455C87.713 2.34376 84.624 4.06785 81.6317 5.73495L80.6894 6.32732C79.4636 7.20195 77.7899 8.39994 77.4692 10.189C76.8424 13.6742 77.6441 16.7368 79.7287 18.8054L80.0732 19.0559C81.2845 19.6893 82.717 19.8921 84.2039 19.1288C88.7122 16.1073 92.4639 13.82 95.8458 12.0111C96.2725 11.8494 96.678 11.6374 97.0835 11.4214C97.1471 11.3896 97.2041 11.3551 97.2677 11.322L95.1938 16.7368C91.625 23.4648 87.7051 31.5963 84.2529 38.7683C81.8675 43.7219 79.8121 47.9997 78.2749 50.9668C77.8787 51.746 76.7297 56.7725 80.765 61.848C81.4528 62.716 82.4679 63.2302 83.4816 63.2302C84.3271 63.2302 85.9107 62.8631 86.9789 60.3996C88.422 57.0627 90.2004 53.7577 91.9205 50.5586C93.1198 48.3336 94.3139 46.1059 95.3621 43.9578C97.599 40.2207 99.6968 36.7937 101.893 33.5814C98.0509 40.8727 94.0594 48.7232 93.2086 52.0627L93.1675 52.3702C93.0761 55.3294 93.2934 59.6111 96.3639 62.7306C96.7323 63.0248 97.7077 63.7126 98.8487 63.7126C99.4291 63.7126 99.9698 63.5337 100.412 63.1918C102.139 61.8507 104.413 57.5173 107.204 51.9925C107.967 50.4765 108.631 49.1698 109.049 48.4356L109.882 47.1131C112.62 42.7466 115.418 38.2899 118.621 34.0678C116.791 37.5107 114.954 41.0781 113.858 43.5112C113.585 44.1115 113.293 44.7158 113.007 45.3174C111.071 49.3858 109.066 53.592 110.031 58.6053C110.375 61.261 112.706 62.7478 114.615 63.7126C115.577 64.0465 116.567 64.2148 117.562 64.2148C120.529 64.2148 123.113 62.7293 125.396 61.4187C125.688 61.2517 125.976 61.0847 126.262 60.9217C127.501 62.6114 129.188 63.6834 131.072 63.9326C135.814 64.3778 140.439 62.5716 144.335 58.914C147.621 62.0309 151.637 63.6092 156.302 63.6092C161.51 63.6053 166.453 61.6479 169.925 59.8138C173.304 62.7889 177.465 64.3513 182.05 64.3513C187.099 64.3513 191.857 62.4311 194.454 60.4168C194.706 60.1716 200.577 54.3726 199.954 48.604C199.768 47.0164 197.767 45.829 196.256 46.4969C194.785 47.1462 193.659 48.6994 192.48 50.3466C191.671 51.4717 190.836 52.6193 189.962 53.3999C190.889 51.9024 191.724 50.1915 192.559 48.1415C194.295 43.1216 193.169 37.4153 191.95 33.6106C191.618 32.2205 192.215 30.8714 192.93 29.309C193.235 28.6384 193.54 27.9692 193.765 27.2973L193.858 26.7381L193.765 26.3498C193.633 25.6647 193.381 24.5171 192.228 23.8651C189.856 22.5306 186.688 22.5213 184.939 24.0254C181.308 27.1198 177.611 33.1879 174.033 39.0559C171.939 42.4987 169.699 46.1749 167.579 48.9869C169.355 44.8112 168.48 40.1995 167.712 36.0901C167.5 34.9901 167.287 33.9061 167.102 32.6843C166.81 31.5976 167.155 30.552 167.539 29.3421C167.924 28.1759 168.348 26.8507 168.202 25.3506L168.162 24.8908L167.844 24.5436C166.837 23.4026 165.313 22.7704 163.537 22.7704C163.087 22.7704 162.636 22.8102 161.987 22.9308C157.905 24.1725 155.904 27.4285 154.141 30.3029C153.426 31.4757 152.737 32.5836 151.875 33.6464L151.213 34.5992C146.853 40.8926 142.334 47.3927 136.119 52.7876C136.066 52.1595 136.185 51.3431 136.477 50.7084C139.498 44.0519 142.665 39.9729 144.971 36.9938C146.376 35.2022 147.476 33.7869 148.072 32.3967C148.178 32.1675 148.615 30.7866 148.337 29.7662C148.191 29.2639 147.913 28.8173 147.529 28.4436C148.324 28.3548 149 28.1282 149.57 27.7585C152.034 26.1444 152.896 23.706 151.889 21.0026C151.147 19.2388 149.278 18.1322 146.893 18.0501L146.628 18.0421C144.348 18.0421 142.387 19.1566 141.287 21.2253C140.664 23.0289 140.744 24.6178 141.459 25.7309C141.791 26.3313 142.241 26.8189 142.731 27.1993C141.579 27.3464 140.611 27.7956 139.988 28.4542C133.853 33.4238 129.128 39.9027 125.928 47.7134C125.677 48.3257 125.468 48.9512 125.255 49.578C124.921 50.5865 124.596 51.5499 124.095 52.3914C123.757 52.5385 123.45 52.6577 123.132 52.7346C124.099 47.8009 126.441 43.2528 128.804 38.9419C130.508 35.3638 134.661 28.9207 138.319 23.2343C143.328 15.4646 146.164 10.9828 146.495 9.22156L146.522 9.03471L146.508 8.8452C146.336 6.54333 144.852 4.86827 143.328 3.31911C141.817 1.87994 139.339 1.41081 137.431 2.21654L137.205 2.33315C133.561 4.67611 130.272 7.53855 127.139 10.5203C127.367 10.1426 127.588 9.75959 127.816 9.37926C129.208 7.27484 127.559 5.48846 126.768 4.63238L126.401 4.22024C124.465 2.04028 121.021 1.24516 118.085 2.25894L117.836 2.37026C114.493 4.28518 111.776 6.87198 109.252 9.54491C109.576 7.81685 109.582 6.01589 108.842 4.19241L108.731 3.91545L107.47 2.66976L107.186 2.45242C105.546 1.489 103.61 1 101.434 1ZM32.3023 1.43864C30.7306 1.43864 29.2225 1.6626 27.6773 2.15293C18.3558 6.23455 11.1998 13.6623 6.39854 24.2414C4.6877 28.0037 -3.57627 47.3185 1.78418 57.8459C3.53743 61.2755 6.51251 63.437 10.6312 64.2798C12.2029 64.5978 13.7362 64.7622 15.1992 64.7622C25.7134 64.7622 31.4992 56.7274 35.3158 48.9008C34.8838 52.3477 34.9726 55.5878 35.8896 58.2965C36.9166 61.3272 38.8766 63.4847 41.7139 64.7131C42.4958 65.0524 43.3757 65.2194 44.3179 65.2194C48.7189 65.2194 53.8899 61.3763 56.0393 59.6058C58.9641 62.1648 61.6754 63.4104 64.2993 63.4104C68.7335 63.4104 71.531 59.8099 73.3823 57.4285L73.8792 56.7924C78.3438 51.1682 75.6232 48.6185 75.2985 48.3469L75.0414 48.1295L74.7101 48.046C74.4742 47.9891 74.2238 47.9612 73.976 47.9612C71.9908 47.9612 70.4589 49.7383 68.8395 51.6214C67.5156 53.16 65.8803 55.0908 64.6956 54.737C64.3775 54.6442 64.0767 54.3792 63.8978 54.0638C72.2757 48.7325 77.1405 43.0845 78.7838 36.6811C79.1085 34.4813 79.7883 29.908 75.8445 27.5544C74.6704 26.9448 73.3915 26.6334 72.0345 26.6334C69.1893 26.6334 66.5164 27.948 63.976 29.4163C62.8177 30.1916 61.7377 31.0225 60.7292 31.9037C67.8867 18.4543 68.5758 7.14497 67.5288 3.65173L67.4122 3.28465L67.1406 3.02226C66.2103 2.13305 64.8784 1.66128 63.2842 1.66128C61.8583 1.66128 60.2826 2.06016 59.0807 2.72807L58.8633 2.87251C52.8509 7.80757 49.1509 14.4296 46.1811 19.7477C45.8406 20.3665 45.3025 21.3485 44.6519 22.6101C44.7804 21.9886 44.8983 21.3631 45.0057 20.7283C45.0627 20.1571 45.1303 19.5793 45.1978 18.9989C45.4814 16.5605 45.7796 14.0387 45.0468 11.6202C44.7393 10.4818 43.9336 9.55949 42.6482 8.85846C42.8655 8.57354 43.0656 8.25284 43.2352 7.88046C43.7322 6.47442 43.2432 5.04717 41.8901 3.96978L41.6516 3.81871C38.658 2.28412 35.341 1.43864 32.3023 1.43864ZM33.063 15.5017C32.8178 19.8099 31.4886 23.7643 30.0945 27.9361C29.4809 29.7662 28.8435 31.6573 28.3452 33.4688C25.8936 40.393 23.324 47.0998 19.0198 52.8791C18.1239 53.7683 16.5827 54.8231 14.9633 54.4627C12.676 53.2952 12.7794 50.7919 13.2008 47.1303C13.2856 46.3922 13.3691 45.6766 13.3956 45.1187C14.2517 38.8306 16.6039 32.9096 18.8899 27.1873L19.3458 25.992C19.6042 25.5481 19.8308 25.0869 20.0521 24.6324C20.3012 24.1261 20.5438 23.6411 20.8181 23.1932C21.4369 23.38 22.1062 23.5298 22.8324 23.5298C23.332 23.5298 23.813 23.4569 24.2716 23.3071L24.5326 23.1866C26.5377 22.0416 27.9357 20.4778 29.2901 18.9724C30.4695 17.6578 31.5986 16.3989 33.063 15.5017ZM68.1345 38.3694C67.2399 40.1107 65.8949 41.8096 64.139 43.4158C64.0078 43.5191 63.8819 43.6199 63.7507 43.7299C64.5882 42.0005 65.9253 40.3016 67.7263 38.6716L68.1345 38.3694ZM52.6203 44.1725C51.8278 46.7712 51.4568 49.5011 51.5442 52.3066C51.482 52.3596 51.413 52.4166 51.3547 52.4722C50.504 53.2395 49.4451 54.1937 48.6632 54.1937C48.4923 54.1937 48.3227 54.1486 48.1371 54.0466C47.0518 53.4502 47.0889 51.2265 47.2241 50.3082C49.192 48.2634 50.9903 46.2146 52.6203 44.1725ZM181.958 45.2101C181.825 46.7752 181.268 48.6729 179.85 50.6633C179.519 50.5454 179.135 50.4248 178.711 50.3161C179.956 48.653 181.017 46.9329 181.958 45.2101ZM156.302 45.6289C155.877 46.9872 155.241 48.5125 154.42 50.1279C154.022 49.9384 153.611 49.7715 153.201 49.6363C154.261 48.3389 155.308 47.0058 156.302 45.6289Z" fill="white"/>
<path d="M101.434 1C98.6963 1 95.9425 1.77259 93.6751 2.6618C93.3186 1.86271 92.5964 1.36046 91.6555 1.29287L91.3891 1.27432L91.144 1.34455C87.713 2.34376 84.624 4.06785 81.6317 5.73495L80.6894 6.32732C79.4636 7.20195 77.7899 8.39994 77.4692 10.189C76.8424 13.6742 77.6441 16.7368 79.7287 18.8054L80.0732 19.0559C81.2845 19.6893 82.717 19.8921 84.2039 19.1288C88.7122 16.1073 92.4639 13.82 95.8458 12.0111C96.2725 11.8494 96.678 11.6374 97.0835 11.4214C97.1471 11.3896 97.2041 11.3551 97.2677 11.322L95.1938 16.7368C91.625 23.4648 87.7051 31.5963 84.2529 38.7683C81.8675 43.7219 79.8121 47.9997 78.2749 50.9668C77.8787 51.746 76.7297 56.7725 80.765 61.848C81.4528 62.716 82.4679 63.2302 83.4816 63.2302C84.3271 63.2302 85.9107 62.8631 86.9789 60.3996C88.422 57.0627 90.2004 53.7577 91.9205 50.5586C93.1198 48.3336 94.3139 46.1059 95.3621 43.9578C97.599 40.2207 99.6968 36.7937 101.893 33.5814C98.0509 40.8727 94.0594 48.7232 93.2086 52.0627L93.1675 52.3702C93.0761 55.3294 93.2934 59.6111 96.3639 62.7306C96.7323 63.0248 97.7077 63.7126 98.8487 63.7126C99.4291 63.7126 99.9698 63.5337 100.412 63.1918C102.139 61.8507 104.413 57.5173 107.204 51.9925C107.967 50.4765 108.631 49.1698 109.049 48.4356L109.882 47.1131C112.62 42.7466 115.418 38.2899 118.621 34.0678C116.791 37.5107 114.954 41.0781 113.858 43.5112C113.585 44.1115 113.293 44.7158 113.007 45.3174C111.071 49.3858 109.066 53.592 110.031 58.6053C110.375 61.261 112.706 62.7478 114.615 63.7126C115.577 64.0465 116.567 64.2148 117.562 64.2148C120.529 64.2148 123.113 62.7293 125.396 61.4187C125.688 61.2517 125.976 61.0847 126.262 60.9217C127.501 62.6114 129.188 63.6834 131.072 63.9326C135.814 64.3778 140.439 62.5716 144.335 58.914C147.621 62.0309 151.637 63.6092 156.302 63.6092C161.51 63.6053 166.453 61.6479 169.925 59.8138C173.304 62.7889 177.465 64.3513 182.05 64.3513C187.099 64.3513 191.857 62.4311 194.454 60.4168C194.706 60.1716 200.577 54.3726 199.954 48.604C199.768 47.0164 197.767 45.829 196.256 46.4969C194.785 47.1462 193.659 48.6994 192.48 50.3466C191.671 51.4717 190.836 52.6193 189.962 53.3999C190.889 51.9024 191.724 50.1915 192.559 48.1415C194.295 43.1216 193.169 37.4153 191.95 33.6106C191.618 32.2205 192.215 30.8714 192.93 29.309C193.235 28.6384 193.54 27.9692 193.765 27.2973L193.858 26.7381L193.765 26.3498C193.633 25.6647 193.381 24.5171 192.228 23.8651C189.856 22.5306 186.688 22.5213 184.939 24.0254C181.308 27.1198 177.611 33.1879 174.033 39.0559C171.939 42.4987 169.699 46.1749 167.579 48.9869C169.355 44.8112 168.48 40.1995 167.712 36.0901C167.5 34.9901 167.287 33.9061 167.102 32.6843C166.81 31.5976 167.155 30.552 167.539 29.3421C167.924 28.1759 168.348 26.8507 168.202 25.3506L168.162 24.8908L167.844 24.5436C166.837 23.4026 165.313 22.7704 163.537 22.7704C163.087 22.7704 162.636 22.8102 161.987 22.9308C157.905 24.1725 155.904 27.4285 154.141 30.3029C153.426 31.4757 152.737 32.5836 151.875 33.6464L151.213 34.5992C146.853 40.8926 142.334 47.3927 136.119 52.7876C136.066 52.1595 136.185 51.3431 136.477 50.7084C139.498 44.0519 142.665 39.9729 144.971 36.9938C146.376 35.2022 147.476 33.7869 148.072 32.3967C148.178 32.1675 148.615 30.7866 148.337 29.7662C148.191 29.2639 147.913 28.8173 147.529 28.4436C148.324 28.3548 149 28.1282 149.57 27.7585C152.034 26.1444 152.896 23.706 151.889 21.0026C151.147 19.2388 149.278 18.1322 146.893 18.0501L146.628 18.0421C144.348 18.0421 142.387 19.1566 141.287 21.2253C140.664 23.0289 140.744 24.6178 141.459 25.7309C141.791 26.3313 142.241 26.8189 142.731 27.1993C141.579 27.3464 140.611 27.7956 139.988 28.4542C133.853 33.4238 129.128 39.9027 125.928 47.7134C125.677 48.3257 125.468 48.9512 125.255 49.578C124.921 50.5865 124.596 51.5499 124.095 52.3914C123.757 52.5385 123.45 52.6577 123.132 52.7346C124.099 47.8009 126.441 43.2528 128.804 38.9419C130.508 35.3638 134.661 28.9207 138.319 23.2343C143.328 15.4646 146.164 10.9828 146.495 9.22156L146.522 9.03471L146.508 8.8452C146.336 6.54333 144.852 4.86827 143.328 3.31911C141.817 1.87994 139.339 1.41081 137.431 2.21654L137.205 2.33315C133.561 4.67611 130.272 7.53855 127.139 10.5203C127.367 10.1426 127.588 9.75959 127.816 9.37926C129.208 7.27484 127.559 5.48846 126.768 4.63238L126.401 4.22024C124.465 2.04028 121.021 1.24516 118.085 2.25894L117.836 2.37026C114.493 4.28518 111.776 6.87198 109.252 9.54491C109.576 7.81685 109.582 6.01589 108.842 4.19241L108.731 3.91545L107.47 2.66976L107.186 2.45242C105.546 1.489 103.61 1 101.434 1ZM32.3023 1.43864C30.7306 1.43864 29.2225 1.6626 27.6773 2.15293C18.3558 6.23455 11.1998 13.6623 6.39854 24.2414C4.6877 28.0037 -3.57627 47.3185 1.78418 57.8459C3.53743 61.2755 6.51251 63.437 10.6312 64.2798C12.2029 64.5978 13.7362 64.7622 15.1992 64.7622C25.7134 64.7622 31.4992 56.7274 35.3158 48.9008C34.8838 52.3477 34.9726 55.5878 35.8896 58.2965C36.9166 61.3272 38.8766 63.4847 41.7139 64.7131C42.4958 65.0524 43.3757 65.2194 44.3179 65.2194C48.7189 65.2194 53.8899 61.3763 56.0393 59.6058C58.9641 62.1648 61.6754 63.4104 64.2993 63.4104C68.7335 63.4104 71.531 59.8099 73.3823 57.4285L73.8792 56.7924C78.3438 51.1682 75.6232 48.6185 75.2985 48.3469L75.0414 48.1295L74.7101 48.046C74.4742 47.9891 74.2238 47.9612 73.976 47.9612C71.9908 47.9612 70.4589 49.7383 68.8395 51.6214C67.5156 53.16 65.8803 55.0908 64.6956 54.737C64.3775 54.6442 64.0767 54.3792 63.8978 54.0638C72.2757 48.7325 77.1405 43.0845 78.7838 36.6811C79.1085 34.4813 79.7883 29.908 75.8445 27.5544C74.6704 26.9448 73.3915 26.6334 72.0345 26.6334C69.1893 26.6334 66.5164 27.948 63.976 29.4163C62.8177 30.1916 61.7377 31.0225 60.7292 31.9037C67.8867 18.4543 68.5758 7.14497 67.5288 3.65173L67.4122 3.28465L67.1406 3.02226C66.2103 2.13305 64.8784 1.66128 63.2842 1.66128C61.8583 1.66128 60.2826 2.06016 59.0807 2.72807L58.8633 2.87251C52.8509 7.80757 49.1509 14.4296 46.1811 19.7477C45.8406 20.3665 45.3025 21.3485 44.6519 22.6101C44.7804 21.9886 44.8983 21.3631 45.0057 20.7283C45.0627 20.1571 45.1303 19.5793 45.1978 18.9989C45.4814 16.5605 45.7796 14.0387 45.0468 11.6202C44.7393 10.4818 43.9336 9.55949 42.6482 8.85846C42.8655 8.57354 43.0656 8.25284 43.2352 7.88046C43.7322 6.47442 43.2432 5.04717 41.8901 3.96978L41.6516 3.81871C38.658 2.28412 35.341 1.43864 32.3023 1.43864ZM33.063 15.5017C32.8178 19.8099 31.4886 23.7643 30.0945 27.9361C29.4809 29.7662 28.8435 31.6573 28.3452 33.4688C25.8936 40.393 23.324 47.0998 19.0198 52.8791C18.1239 53.7683 16.5827 54.8231 14.9633 54.4627C12.676 53.2952 12.7794 50.7919 13.2008 47.1303C13.2856 46.3922 13.3691 45.6766 13.3956 45.1187C14.2517 38.8306 16.6039 32.9096 18.8899 27.1873L19.3458 25.992C19.6042 25.5481 19.8308 25.0869 20.0521 24.6324C20.3012 24.1261 20.5438 23.6411 20.8181 23.1932C21.4369 23.38 22.1062 23.5298 22.8324 23.5298C23.332 23.5298 23.813 23.4569 24.2716 23.3071L24.5326 23.1866C26.5377 22.0416 27.9357 20.4778 29.2901 18.9724C30.4695 17.6578 31.5986 16.3989 33.063 15.5017ZM68.1345 38.3694C67.2399 40.1107 65.8949 41.8096 64.139 43.4158C64.0078 43.5191 63.8819 43.6199 63.7507 43.7299C64.5882 42.0005 65.9253 40.3016 67.7263 38.6716L68.1345 38.3694ZM52.6203 44.1725C51.8278 46.7712 51.4568 49.5011 51.5442 52.3066C51.482 52.3596 51.413 52.4166 51.3547 52.4722C50.504 53.2395 49.4451 54.1937 48.6632 54.1937C48.4923 54.1937 48.3227 54.1486 48.1371 54.0466C47.0518 53.4502 47.0889 51.2265 47.2241 50.3082C49.192 48.2634 50.9903 46.2146 52.6203 44.1725ZM181.958 45.2101C181.825 46.7752 181.268 48.6729 179.85 50.6633C179.519 50.5454 179.135 50.4248 178.711 50.3161C179.956 48.653 181.017 46.9329 181.958 45.2101ZM156.302 45.6289C155.877 46.9872 155.241 48.5125 154.42 50.1279C154.022 49.9384 153.611 49.7715 153.201 49.6363C154.261 48.3389 155.308 47.0058 156.302 45.6289Z" stroke="white" stroke-width="2" mask="url(#path-1-outside-1_55_10260)"/>
<mask id="path-2-outside-2_55_10260" maskUnits="userSpaceOnUse" x="0.433594" y="1.4375" width="200" height="64" fill="black">
<rect fill="white" x="0.433594" y="1.4375" width="200" height="64"/>
<path d="M101.063 2.44254C97.8914 2.53001 94.5982 3.71474 92.03 4.9538L91.7835 4.80406C92.25 4.45288 92.2076 3.91617 92.4329 3.4709C92.3308 3.02298 92.0658 2.76457 91.545 2.72746C88.0968 3.72932 84.9335 5.54352 81.871 7.25171C80.8002 8.03093 79.1331 9.08844 78.8893 10.4401C78.4241 13.0163 78.7859 15.835 80.7419 17.7804C81.4907 18.1714 82.6158 18.3198 83.4029 17.9289C87.1943 15.3911 91.1832 12.8692 95.3351 10.6628C96.4668 10.2347 97.3904 9.38528 98.7223 9.40251C99.1622 9.5125 99.1238 9.95777 99.2046 10.2904L96.4654 17.4134C90.457 28.7386 83.3261 44.3415 79.5585 51.6155C79.4366 51.8567 78.1829 56.2895 81.8882 60.9489C82.6727 61.9322 84.471 62.5644 85.6544 59.8278C88.1114 54.1467 91.4045 48.7836 94.1265 43.2164C98.4586 35.9874 102.833 28.83 109.043 22.4531L109.441 22.3749C106.984 27.3246 96.0003 46.9429 94.6075 52.412C94.5081 55.6707 94.8924 59.1798 97.2685 61.6062C97.8715 62.0926 98.8707 62.5604 99.5306 62.0515C101.757 60.3234 106.177 50.5395 107.83 47.6678C112.889 39.6211 117.869 31.4062 125.165 24.5257H125.405C125.063 25.2864 117.824 38.1912 115.167 44.1069C113.093 48.6484 110.432 53.06 111.457 58.4191C111.701 60.2903 113.394 61.4764 115.086 62.3457C119.581 63.9068 123.249 60.7912 126.774 59.0128C127.622 60.6428 129.133 62.2211 131.214 62.4968C136.464 62.9964 141.102 60.3301 144.349 56.862C152.83 66.2564 165.088 60.8853 170.151 58.0467C178.447 66.21 189.724 62.2582 193.448 59.3826C193.448 59.3826 199.08 53.8975 198.523 48.7624C198.444 48.0733 197.49 47.5313 196.84 47.8162C193.792 49.1573 191.579 57.2132 186.517 55.6004C188.677 53.1925 190.069 50.4666 191.195 47.6678C192.732 43.2535 191.884 38.0998 190.546 33.9453C189.923 31.3704 191.619 29.1268 192.401 26.8303C192.268 26.2008 192.176 25.4892 191.513 25.1234C189.949 24.2368 187.418 23.7982 185.881 25.1234C177.585 32.1881 168.415 56.3783 161.365 55.1565C163.299 53.4682 164.691 51.5016 165.791 49.368C168.56 44.3468 166.467 38.3012 165.711 33.0574C164.969 30.3129 167.023 28.1449 166.771 25.4945C165.738 24.3283 164.068 24.0275 162.412 24.3084C157.349 25.8456 155.958 30.9225 153.056 34.4621C148.325 41.2843 143.527 48.4046 136.61 54.2659C136.133 54.5244 135.377 54.4528 134.993 54.0433C134.45 52.9699 134.649 51.2577 135.152 50.1141C140.016 39.3839 145.303 35.1658 146.748 31.825C146.854 31.5944 147.079 30.6336 146.946 30.1525C146.761 29.5032 146.045 29.0062 144.998 28.7558C143.594 28.4232 141.911 28.5146 140.89 29.5734C134.543 34.7271 130.103 41.324 127.262 48.2575C126.536 50.02 126.175 51.9097 125.082 53.5252C124.198 53.9333 123.292 54.3402 122.184 54.2659C121.761 54.0075 121.677 53.4695 121.614 53.0057C122.543 47.7208 124.941 42.9951 127.502 38.3211C131.093 30.7953 144.508 12.0132 145.078 8.95459C144.932 7.13509 143.686 5.73037 142.335 4.35879C141.235 3.30128 139.433 2.93419 137.988 3.54511C130.929 8.08659 125.202 14.6291 119.116 20.3792C121.696 16.446 124.255 12.5724 126.614 8.58486C127.518 7.21593 126.112 6.10276 125.323 5.17379C123.672 3.31983 120.911 2.803 118.551 3.618C113.692 6.39828 110.171 10.733 106.456 14.6675C106.357 14.649 106.195 14.7232 106.138 14.592C107.205 11.5334 108.853 8.06803 107.504 4.73117L106.456 3.69089C104.824 2.73144 102.966 2.39086 101.063 2.44254ZM32.7921 2.88251C32.376 2.86926 31.9585 2.87191 31.5424 2.89311V2.89576C30.4319 2.95142 29.3267 3.13563 28.2533 3.4709C18.2228 7.86528 11.7903 15.8483 7.70996 24.8345C5.36833 29.9789 -6.86065 59.2328 10.9223 62.8665C28.4123 66.4432 34.1186 47.9977 38.1684 38.6922C40.1059 32.7036 42.4846 26.8992 43.5739 20.5965C43.835 17.7235 44.4777 14.7219 43.6548 11.9933C43.2519 10.5117 41.4973 9.7855 40.1059 9.39986C40.7327 8.80484 41.4987 8.21115 41.8816 7.39615C42.205 6.48706 41.7399 5.68929 40.9938 5.09825C38.6018 3.86714 35.7115 2.97395 32.7934 2.88251H32.7921ZM63.0544 3.1078C61.875 3.14888 60.6677 3.49476 59.7812 3.98508C54.1756 8.58354 50.685 14.6384 47.4422 20.4494C41.6166 30.8841 29.173 57.7181 42.2858 63.3886C47.4237 65.6097 56.0719 57.681 56.0719 57.681C65.3868 66.6036 69.9786 59.3839 72.7549 55.8946C76.4748 51.2087 74.3717 49.4475 74.3717 49.4475C71.272 48.6895 68.1631 57.2317 64.2948 56.1199C63.1021 55.778 62.2553 54.5442 62.2805 53.3794C68.8694 49.3176 75.4809 43.7584 77.356 36.4698C77.7576 33.765 78.0014 30.5143 75.1774 28.8313C71.6126 26.9787 67.7403 28.9042 64.7759 30.6124C56.7769 35.9702 52.5032 43.9943 53.0067 52.9315C51.4549 54.2487 49.5599 56.4751 47.4422 55.3049C45.0237 53.9744 45.8321 49.6821 45.9129 49.5973C64.923 30.0426 67.6582 9.08711 66.1474 4.06327C65.3802 3.33043 64.2325 3.06539 63.0544 3.1078ZM33.9 13.4788C34.5241 13.4391 34.6076 14.0566 34.548 14.5191C34.4274 21.4738 31.4775 27.53 29.7044 33.9453C27.2488 40.8787 24.6262 47.7605 20.0344 53.8975C18.6031 55.3221 16.663 56.3969 14.4672 55.8231C10.1947 53.8034 11.7465 48.5941 11.9678 44.9219C12.9127 37.9527 15.5764 31.6315 18.0982 25.2718C18.8244 24.0116 19.2869 22.6532 20.2755 21.487C21.3609 21.8568 22.5933 22.3391 23.8191 21.9323C27.8345 19.6318 29.3638 15.2573 33.9 13.4788ZM57.2752 17.2636C56.5503 25.0876 52.3428 31.7574 48.0889 38.3211C47.804 38.6922 47.3614 39.1016 46.9559 39.3627C48.5925 31.389 52.861 24.1958 57.2752 17.2636ZM146.84 19.4886C145.078 19.4171 143.448 20.2175 142.653 21.6991C142.295 22.75 142.083 24.054 142.732 25.0518C143.209 25.9609 144.27 26.5665 145.21 26.9018C146.363 27.1033 147.808 27.1867 148.775 26.5506C150.882 25.1724 151.227 23.3423 150.564 21.5599C149.981 20.1685 148.364 19.5416 146.84 19.4886ZM69.6182 35.5779C70.1562 35.5779 70.4424 36.0046 70.4239 36.4685C69.5744 39.5284 67.5773 42.2159 65.0197 44.5522C63.8734 45.4427 62.7576 46.7573 61.3078 47.1456C61.6272 43.3476 63.9688 40.1207 66.8723 37.5061C67.7775 36.8408 68.6667 36.1146 69.6182 35.5779ZM157.972 40.1777C159.364 43.3198 156.62 49.0937 155.242 51.6699L154.831 51.9667C153.559 51.2617 152.287 50.6163 150.644 50.782L150.485 50.6309C153.321 47.2781 156.09 43.883 157.972 40.1777ZM182.727 40.5448C182.727 40.5448 185.43 46.275 180.315 52.412C180.315 52.412 178.208 51.3213 175.955 51.4472C178.897 48.0733 180.885 44.3481 182.727 40.5448Z"/>
</mask>
<path d="M101.063 2.44254C97.8914 2.53001 94.5982 3.71474 92.03 4.9538L91.7835 4.80406C92.25 4.45288 92.2076 3.91617 92.4329 3.4709C92.3308 3.02298 92.0658 2.76457 91.545 2.72746C88.0968 3.72932 84.9335 5.54352 81.871 7.25171C80.8002 8.03093 79.1331 9.08844 78.8893 10.4401C78.4241 13.0163 78.7859 15.835 80.7419 17.7804C81.4907 18.1714 82.6158 18.3198 83.4029 17.9289C87.1943 15.3911 91.1832 12.8692 95.3351 10.6628C96.4668 10.2347 97.3904 9.38528 98.7223 9.40251C99.1622 9.5125 99.1238 9.95777 99.2046 10.2904L96.4654 17.4134C90.457 28.7386 83.3261 44.3415 79.5585 51.6155C79.4366 51.8567 78.1829 56.2895 81.8882 60.9489C82.6727 61.9322 84.471 62.5644 85.6544 59.8278C88.1114 54.1467 91.4045 48.7836 94.1265 43.2164C98.4586 35.9874 102.833 28.83 109.043 22.4531L109.441 22.3749C106.984 27.3246 96.0003 46.9429 94.6075 52.412C94.5081 55.6707 94.8924 59.1798 97.2685 61.6062C97.8715 62.0926 98.8707 62.5604 99.5306 62.0515C101.757 60.3234 106.177 50.5395 107.83 47.6678C112.889 39.6211 117.869 31.4062 125.165 24.5257H125.405C125.063 25.2864 117.824 38.1912 115.167 44.1069C113.093 48.6484 110.432 53.06 111.457 58.4191C111.701 60.2903 113.394 61.4764 115.086 62.3457C119.581 63.9068 123.249 60.7912 126.774 59.0128C127.622 60.6428 129.133 62.2211 131.214 62.4968C136.464 62.9964 141.102 60.3301 144.349 56.862C152.83 66.2564 165.088 60.8853 170.151 58.0467C178.447 66.21 189.724 62.2582 193.448 59.3826C193.448 59.3826 199.08 53.8975 198.523 48.7624C198.444 48.0733 197.49 47.5313 196.84 47.8162C193.792 49.1573 191.579 57.2132 186.517 55.6004C188.677 53.1925 190.069 50.4666 191.195 47.6678C192.732 43.2535 191.884 38.0998 190.546 33.9453C189.923 31.3704 191.619 29.1268 192.401 26.8303C192.268 26.2008 192.176 25.4892 191.513 25.1234C189.949 24.2368 187.418 23.7982 185.881 25.1234C177.585 32.1881 168.415 56.3783 161.365 55.1565C163.299 53.4682 164.691 51.5016 165.791 49.368C168.56 44.3468 166.467 38.3012 165.711 33.0574C164.969 30.3129 167.023 28.1449 166.771 25.4945C165.738 24.3283 164.068 24.0275 162.412 24.3084C157.349 25.8456 155.958 30.9225 153.056 34.4621C148.325 41.2843 143.527 48.4046 136.61 54.2659C136.133 54.5244 135.377 54.4528 134.993 54.0433C134.45 52.9699 134.649 51.2577 135.152 50.1141C140.016 39.3839 145.303 35.1658 146.748 31.825C146.854 31.5944 147.079 30.6336 146.946 30.1525C146.761 29.5032 146.045 29.0062 144.998 28.7558C143.594 28.4232 141.911 28.5146 140.89 29.5734C134.543 34.7271 130.103 41.324 127.262 48.2575C126.536 50.02 126.175 51.9097 125.082 53.5252C124.198 53.9333 123.292 54.3402 122.184 54.2659C121.761 54.0075 121.677 53.4695 121.614 53.0057C122.543 47.7208 124.941 42.9951 127.502 38.3211C131.093 30.7953 144.508 12.0132 145.078 8.95459C144.932 7.13509 143.686 5.73037 142.335 4.35879C141.235 3.30128 139.433 2.93419 137.988 3.54511C130.929 8.08659 125.202 14.6291 119.116 20.3792C121.696 16.446 124.255 12.5724 126.614 8.58486C127.518 7.21593 126.112 6.10276 125.323 5.17379C123.672 3.31983 120.911 2.803 118.551 3.618C113.692 6.39828 110.171 10.733 106.456 14.6675C106.357 14.649 106.195 14.7232 106.138 14.592C107.205 11.5334 108.853 8.06803 107.504 4.73117L106.456 3.69089C104.824 2.73144 102.966 2.39086 101.063 2.44254ZM32.7921 2.88251C32.376 2.86926 31.9585 2.87191 31.5424 2.89311V2.89576C30.4319 2.95142 29.3267 3.13563 28.2533 3.4709C18.2228 7.86528 11.7903 15.8483 7.70996 24.8345C5.36833 29.9789 -6.86065 59.2328 10.9223 62.8665C28.4123 66.4432 34.1186 47.9977 38.1684 38.6922C40.1059 32.7036 42.4846 26.8992 43.5739 20.5965C43.835 17.7235 44.4777 14.7219 43.6548 11.9933C43.2519 10.5117 41.4973 9.7855 40.1059 9.39986C40.7327 8.80484 41.4987 8.21115 41.8816 7.39615C42.205 6.48706 41.7399 5.68929 40.9938 5.09825C38.6018 3.86714 35.7115 2.97395 32.7934 2.88251H32.7921ZM63.0544 3.1078C61.875 3.14888 60.6677 3.49476 59.7812 3.98508C54.1756 8.58354 50.685 14.6384 47.4422 20.4494C41.6166 30.8841 29.173 57.7181 42.2858 63.3886C47.4237 65.6097 56.0719 57.681 56.0719 57.681C65.3868 66.6036 69.9786 59.3839 72.7549 55.8946C76.4748 51.2087 74.3717 49.4475 74.3717 49.4475C71.272 48.6895 68.1631 57.2317 64.2948 56.1199C63.1021 55.778 62.2553 54.5442 62.2805 53.3794C68.8694 49.3176 75.4809 43.7584 77.356 36.4698C77.7576 33.765 78.0014 30.5143 75.1774 28.8313C71.6126 26.9787 67.7403 28.9042 64.7759 30.6124C56.7769 35.9702 52.5032 43.9943 53.0067 52.9315C51.4549 54.2487 49.5599 56.4751 47.4422 55.3049C45.0237 53.9744 45.8321 49.6821 45.9129 49.5973C64.923 30.0426 67.6582 9.08711 66.1474 4.06327C65.3802 3.33043 64.2325 3.06539 63.0544 3.1078ZM33.9 13.4788C34.5241 13.4391 34.6076 14.0566 34.548 14.5191C34.4274 21.4738 31.4775 27.53 29.7044 33.9453C27.2488 40.8787 24.6262 47.7605 20.0344 53.8975C18.6031 55.3221 16.663 56.3969 14.4672 55.8231C10.1947 53.8034 11.7465 48.5941 11.9678 44.9219C12.9127 37.9527 15.5764 31.6315 18.0982 25.2718C18.8244 24.0116 19.2869 22.6532 20.2755 21.487C21.3609 21.8568 22.5933 22.3391 23.8191 21.9323C27.8345 19.6318 29.3638 15.2573 33.9 13.4788ZM57.2752 17.2636C56.5503 25.0876 52.3428 31.7574 48.0889 38.3211C47.804 38.6922 47.3614 39.1016 46.9559 39.3627C48.5925 31.389 52.861 24.1958 57.2752 17.2636ZM146.84 19.4886C145.078 19.4171 143.448 20.2175 142.653 21.6991C142.295 22.75 142.083 24.054 142.732 25.0518C143.209 25.9609 144.27 26.5665 145.21 26.9018C146.363 27.1033 147.808 27.1867 148.775 26.5506C150.882 25.1724 151.227 23.3423 150.564 21.5599C149.981 20.1685 148.364 19.5416 146.84 19.4886ZM69.6182 35.5779C70.1562 35.5779 70.4424 36.0046 70.4239 36.4685C69.5744 39.5284 67.5773 42.2159 65.0197 44.5522C63.8734 45.4427 62.7576 46.7573 61.3078 47.1456C61.6272 43.3476 63.9688 40.1207 66.8723 37.5061C67.7775 36.8408 68.6667 36.1146 69.6182 35.5779ZM157.972 40.1777C159.364 43.3198 156.62 49.0937 155.242 51.6699L154.831 51.9667C153.559 51.2617 152.287 50.6163 150.644 50.782L150.485 50.6309C153.321 47.2781 156.09 43.883 157.972 40.1777ZM182.727 40.5448C182.727 40.5448 185.43 46.275 180.315 52.412C180.315 52.412 178.208 51.3213 175.955 51.4472C178.897 48.0733 180.885 44.3481 182.727 40.5448Z" fill="#CE1126"/>
<path d="M101.063 2.44254C97.8914 2.53001 94.5982 3.71474 92.03 4.9538L91.7835 4.80406C92.25 4.45288 92.2076 3.91617 92.4329 3.4709C92.3308 3.02298 92.0658 2.76457 91.545 2.72746C88.0968 3.72932 84.9335 5.54352 81.871 7.25171C80.8002 8.03093 79.1331 9.08844 78.8893 10.4401C78.4241 13.0163 78.7859 15.835 80.7419 17.7804C81.4907 18.1714 82.6158 18.3198 83.4029 17.9289C87.1943 15.3911 91.1832 12.8692 95.3351 10.6628C96.4668 10.2347 97.3904 9.38528 98.7223 9.40251C99.1622 9.5125 99.1238 9.95777 99.2046 10.2904L96.4654 17.4134C90.457 28.7386 83.3261 44.3415 79.5585 51.6155C79.4366 51.8567 78.1829 56.2895 81.8882 60.9489C82.6727 61.9322 84.471 62.5644 85.6544 59.8278C88.1114 54.1467 91.4045 48.7836 94.1265 43.2164C98.4586 35.9874 102.833 28.83 109.043 22.4531L109.441 22.3749C106.984 27.3246 96.0003 46.9429 94.6075 52.412C94.5081 55.6707 94.8924 59.1798 97.2685 61.6062C97.8715 62.0926 98.8707 62.5604 99.5306 62.0515C101.757 60.3234 106.177 50.5395 107.83 47.6678C112.889 39.6211 117.869 31.4062 125.165 24.5257H125.405C125.063 25.2864 117.824 38.1912 115.167 44.1069C113.093 48.6484 110.432 53.06 111.457 58.4191C111.701 60.2903 113.394 61.4764 115.086 62.3457C119.581 63.9068 123.249 60.7912 126.774 59.0128C127.622 60.6428 129.133 62.2211 131.214 62.4968C136.464 62.9964 141.102 60.3301 144.349 56.862C152.83 66.2564 165.088 60.8853 170.151 58.0467C178.447 66.21 189.724 62.2582 193.448 59.3826C193.448 59.3826 199.08 53.8975 198.523 48.7624C198.444 48.0733 197.49 47.5313 196.84 47.8162C193.792 49.1573 191.579 57.2132 186.517 55.6004C188.677 53.1925 190.069 50.4666 191.195 47.6678C192.732 43.2535 191.884 38.0998 190.546 33.9453C189.923 31.3704 191.619 29.1268 192.401 26.8303C192.268 26.2008 192.176 25.4892 191.513 25.1234C189.949 24.2368 187.418 23.7982 185.881 25.1234C177.585 32.1881 168.415 56.3783 161.365 55.1565C163.299 53.4682 164.691 51.5016 165.791 49.368C168.56 44.3468 166.467 38.3012 165.711 33.0574C164.969 30.3129 167.023 28.1449 166.771 25.4945C165.738 24.3283 164.068 24.0275 162.412 24.3084C157.349 25.8456 155.958 30.9225 153.056 34.4621C148.325 41.2843 143.527 48.4046 136.61 54.2659C136.133 54.5244 135.377 54.4528 134.993 54.0433C134.45 52.9699 134.649 51.2577 135.152 50.1141C140.016 39.3839 145.303 35.1658 146.748 31.825C146.854 31.5944 147.079 30.6336 146.946 30.1525C146.761 29.5032 146.045 29.0062 144.998 28.7558C143.594 28.4232 141.911 28.5146 140.89 29.5734C134.543 34.7271 130.103 41.324 127.262 48.2575C126.536 50.02 126.175 51.9097 125.082 53.5252C124.198 53.9333 123.292 54.3402 122.184 54.2659C121.761 54.0075 121.677 53.4695 121.614 53.0057C122.543 47.7208 124.941 42.9951 127.502 38.3211C131.093 30.7953 144.508 12.0132 145.078 8.95459C144.932 7.13509 143.686 5.73037 142.335 4.35879C141.235 3.30128 139.433 2.93419 137.988 3.54511C130.929 8.08659 125.202 14.6291 119.116 20.3792C121.696 16.446 124.255 12.5724 126.614 8.58486C127.518 7.21593 126.112 6.10276 125.323 5.17379C123.672 3.31983 120.911 2.803 118.551 3.618C113.692 6.39828 110.171 10.733 106.456 14.6675C106.357 14.649 106.195 14.7232 106.138 14.592C107.205 11.5334 108.853 8.06803 107.504 4.73117L106.456 3.69089C104.824 2.73144 102.966 2.39086 101.063 2.44254ZM32.7921 2.88251C32.376 2.86926 31.9585 2.87191 31.5424 2.89311V2.89576C30.4319 2.95142 29.3267 3.13563 28.2533 3.4709C18.2228 7.86528 11.7903 15.8483 7.70996 24.8345C5.36833 29.9789 -6.86065 59.2328 10.9223 62.8665C28.4123 66.4432 34.1186 47.9977 38.1684 38.6922C40.1059 32.7036 42.4846 26.8992 43.5739 20.5965C43.835 17.7235 44.4777 14.7219 43.6548 11.9933C43.2519 10.5117 41.4973 9.7855 40.1059 9.39986C40.7327 8.80484 41.4987 8.21115 41.8816 7.39615C42.205 6.48706 41.7399 5.68929 40.9938 5.09825C38.6018 3.86714 35.7115 2.97395 32.7934 2.88251H32.7921ZM63.0544 3.1078C61.875 3.14888 60.6677 3.49476 59.7812 3.98508C54.1756 8.58354 50.685 14.6384 47.4422 20.4494C41.6166 30.8841 29.173 57.7181 42.2858 63.3886C47.4237 65.6097 56.0719 57.681 56.0719 57.681C65.3868 66.6036 69.9786 59.3839 72.7549 55.8946C76.4748 51.2087 74.3717 49.4475 74.3717 49.4475C71.272 48.6895 68.1631 57.2317 64.2948 56.1199C63.1021 55.778 62.2553 54.5442 62.2805 53.3794C68.8694 49.3176 75.4809 43.7584 77.356 36.4698C77.7576 33.765 78.0014 30.5143 75.1774 28.8313C71.6126 26.9787 67.7403 28.9042 64.7759 30.6124C56.7769 35.9702 52.5032 43.9943 53.0067 52.9315C51.4549 54.2487 49.5599 56.4751 47.4422 55.3049C45.0237 53.9744 45.8321 49.6821 45.9129 49.5973C64.923 30.0426 67.6582 9.08711 66.1474 4.06327C65.3802 3.33043 64.2325 3.06539 63.0544 3.1078ZM33.9 13.4788C34.5241 13.4391 34.6076 14.0566 34.548 14.5191C34.4274 21.4738 31.4775 27.53 29.7044 33.9453C27.2488 40.8787 24.6262 47.7605 20.0344 53.8975C18.6031 55.3221 16.663 56.3969 14.4672 55.8231C10.1947 53.8034 11.7465 48.5941 11.9678 44.9219C12.9127 37.9527 15.5764 31.6315 18.0982 25.2718C18.8244 24.0116 19.2869 22.6532 20.2755 21.487C21.3609 21.8568 22.5933 22.3391 23.8191 21.9323C27.8345 19.6318 29.3638 15.2573 33.9 13.4788ZM57.2752 17.2636C56.5503 25.0876 52.3428 31.7574 48.0889 38.3211C47.804 38.6922 47.3614 39.1016 46.9559 39.3627C48.5925 31.389 52.861 24.1958 57.2752 17.2636ZM146.84 19.4886C145.078 19.4171 143.448 20.2175 142.653 21.6991C142.295 22.75 142.083 24.054 142.732 25.0518C143.209 25.9609 144.27 26.5665 145.21 26.9018C146.363 27.1033 147.808 27.1867 148.775 26.5506C150.882 25.1724 151.227 23.3423 150.564 21.5599C149.981 20.1685 148.364 19.5416 146.84 19.4886ZM69.6182 35.5779C70.1562 35.5779 70.4424 36.0046 70.4239 36.4685C69.5744 39.5284 67.5773 42.2159 65.0197 44.5522C63.8734 45.4427 62.7576 46.7573 61.3078 47.1456C61.6272 43.3476 63.9688 40.1207 66.8723 37.5061C67.7775 36.8408 68.6667 36.1146 69.6182 35.5779ZM157.972 40.1777C159.364 43.3198 156.62 49.0937 155.242 51.6699L154.831 51.9667C153.559 51.2617 152.287 50.6163 150.644 50.782L150.485 50.6309C153.321 47.2781 156.09 43.883 157.972 40.1777ZM182.727 40.5448C182.727 40.5448 185.43 46.275 180.315 52.412C180.315 52.412 178.208 51.3213 175.955 51.4472C178.897 48.0733 180.885 44.3481 182.727 40.5448Z" stroke="white" stroke-width="2" mask="url(#path-2-outside-2_55_10260)"/>
</svg>
